# xmcd
#
# Track frame offsets:
#	150
#	11942
#	23777
#	35927
#	47912
#	60807
#	76945
#	91275
#	101682
#	112210
#	125035
#	139450
#	151780
#	163400
#	177187
#	191080
#
# Disc length: 2697 seconds
#
# Revision: 0
# Processed by: cddbd v1.4PL0 Copyright (c) Steve Scherf et al.
# Submitted via: dBpowerAMP V4.0
#
DISCID=e20a8710
DTITLE=Ray Charles - verzamelalbum
DYEAR=1900
DGENRE=Blues
TTITLE0=CC Rider
TTITLE1=How Long Blues
TTITLE2=I Love You, I Love You
TTITLE3=Can't You See Darling
TTITLE4=Lonely Boy
TTITLE5=Let Me Hear You Call My Name
TTITLE6=Someday
TTITLE7=Ain't That Fine
TTITLE8=Hey Now
TTITLE9=Why Did You Go
TTITLE10=Kissa Me Baby
TTITLE11=Goin'Down Slow
TTITLE12=Guitar Blues
TTITLE13=Baby Let Me Hold Your Hand
TTITLE14=This Love Is Mine
TTITLE15=She's On The Ball
EXTD=
EXTT0=
EXTT1=
EXTT2=
EXTT3=
EXTT4=
EXTT5=
EXTT6=
EXTT7=
EXTT8=
EXTT9=
EXTT10=
EXTT11=
EXTT12=
EXTT13=
EXTT14=
EXTT15=
PLAYORDER=
